# xmcd
#
# Track frame offsets: 
#        182
#        22400
#        37757
#        58737
#        75415
#        90435
#        121937
#        142245
#        166275
#        189920
#        210855
#        236442
#        255212
#
# Disc length: 3634 seconds
#
# Revision: 1
# Processed by: cddbd v1.5.2PL0 Copyright (c) Steve Scherf et al.
# Submitted via: ExactAudioCopyFreeDBPlugin 1.0
#
DISCID=9b0e300d
DTITLE=Jay Owens - The Blues Soul Of Jay Owens
DYEAR=1993
DGENRE=Blues
TTITLE0=Come On To My House
TTITLE1=Stepping Stone
TTITLE2=Bottom Line
TTITLE3=Chasing My Dreams
TTITLE4=Lake City, Fla
TTITLE5=Wishing Well
TTITLE6=Back Row
TTITLE7=Why You Treat Me This Way
TTITLE8=Can't Do The Same Thing Again
TTITLE9=Crosstown Love
TTITLE10=Missing You Blues
TTITLE11=My Kind Of Woman
TTITLE12=We're Human
EXTD=
EXTT0=
EXTT1=
EXTT2=
EXTT3=
EXTT4=
EXTT5=
EXTT6=
EXTT7=
EXTT8=
EXTT9=
EXTT10=
EXTT11=
EXTT12=
PLAYORDER=
